<svg id="visual" viewBox="0 0 900 600" width="900" height="600" xmlns="http://www.w3.org/2000/svg" xmlns:xlink="http://www.w3.org/1999/xlink" version="1.1"><rect x="0" y="0" width="900" height="600" fill="#E9EFF2"></rect><defs><linearGradient id="grad1_0" x1="33.3%" y1="100%" x2="100%" y2="0%"><stop offset="20%" stop-color="#045de9" stop-opacity="1"></stop><stop offset="80%" stop-color="#045de9" stop-opacity="1"></stop></linearGradient></defs><defs><linearGradient id="grad1_1" x1="33.3%" y1="100%" x2="100%" y2="0%"><stop offset="20%" stop-color="#045de9" stop-opacity="1"></stop><stop offset="80%" stop-color="#0c88f4" stop-opacity="1"></stop></linearGradient></defs><defs><linearGradient id="grad1_2" x1="33.3%" y1="100%" x2="100%" y2="0%"><stop offset="20%" stop-color="#5caef5" stop-opacity="1"></stop><stop offset="80%" stop-color="#0c88f4" stop-opacity="1"></stop></linearGradient></defs><defs><linearGradient id="grad1_3" x1="33.3%" y1="100%" x2="100%" y2="0%"><stop offset="20%" stop-color="#5caef5" stop-opacity="1"></stop><stop offset="80%" stop-color="#a1d1f2" stop-opacity="1"></stop></linearGradient></defs><defs><linearGradient id="grad1_4" x1="33.3%" y1="100%" x2="100%" y2="0%"><stop offset="20%" stop-color="#e9eff2" stop-opacity="1"></stop><stop offset="80%" stop-color="#a1d1f2" stop-opacity="1"></stop></linearGradient></defs><defs><linearGradient id="grad2_0" x1="0%" y1="100%" x2="66.7%" y2="0%"><stop offset="20%" stop-color="#045de9" stop-opacity="1"></stop><stop offset="80%" stop-color="#045de9" stop-opacity="1"></stop></linearGradient></defs><defs><linearGradient id="grad2_1" x1="0%" y1="100%" x2="66.7%" y2="0%"><stop offset="20%" stop-color="#0c88f4" stop-opacity="1"></stop><stop offset="80%" stop-color="#045de9" stop-opacity="1"></stop></linearGradient></defs><defs><linearGradient id="grad2_2" x1="0%" y1="100%" x2="66.7%" y2="0%"><stop offset="20%" stop-color="#0c88f4" stop-opacity="1"></stop><stop offset="80%" stop-color="#5caef5" stop-opacity="1"></stop></linearGradient></defs><defs><linearGradient id="grad2_3" x1="0%" y1="100%" x2="66.7%" y2="0%"><stop offset="20%" stop-color="#a1d1f2" stop-opacity="1"></stop><stop offset="80%" stop-color="#5caef5" stop-opacity="1"></stop></linearGradient></defs><defs><linearGradient id="grad2_4" x1="0%" y1="100%" x2="66.7%" y2="0%"><stop offset="20%" stop-color="#a1d1f2" stop-opacity="1"></stop><stop offset="80%" stop-color="#e9eff2" stop-opacity="1"></stop></linearGradient></defs><g transform="translate(900, 600)"><path d="M-378.6 0C-336.6 -31 -294.6 -62.1 -271.1 -88.1C-247.5 -114 -242.6 -135 -241.9 -175.7C-241.2 -216.5 -244.9 -277.2 -222.5 -306.3C-200.2 -335.3 -151.7 -332.7 -110.3 -339.5C-68.9 -346.3 -34.4 -362.4 0 -378.6L0 0Z" fill="#c4e0f1"></path><path d="M-302.9 0C-269.3 -24.8 -235.6 -49.7 -216.8 -70.5C-198 -91.2 -194 -108 -193.5 -140.6C-193 -173.2 -195.9 -221.8 -178 -245C-160.1 -268.3 -121.4 -266.2 -88.3 -271.6C-55.1 -277 -27.6 -290 0 -302.9L0 0Z" fill="#7fc0f4"></path><path d="M-227.1 0C-201.9 -18.6 -176.7 -37.3 -162.6 -52.8C-148.5 -68.4 -145.5 -81 -145.1 -105.4C-144.7 -129.9 -146.9 -166.3 -133.5 -183.8C-120.1 -201.2 -91 -199.6 -66.2 -203.7C-41.3 -207.8 -20.7 -217.5 0 -227.1L0 0Z" fill="#399cf5"></path><path d="M-151.4 0C-134.6 -12.4 -117.8 -24.8 -108.4 -35.2C-99 -45.6 -97 -54 -96.8 -70.3C-96.5 -86.6 -98 -110.9 -89 -122.5C-80.1 -134.1 -60.7 -133.1 -44.1 -135.8C-27.6 -138.5 -13.8 -145 0 -151.4L0 0Z" fill="#0074f0"></path><path d="M-75.7 0C-67.3 -6.2 -58.9 -12.4 -54.2 -17.6C-49.5 -22.8 -48.5 -27 -48.4 -35.1C-48.2 -43.3 -49 -55.4 -44.5 -61.3C-40 -67.1 -30.3 -66.5 -22.1 -67.9C-13.8 -69.3 -6.9 -72.5 0 -75.7L0 0Z" fill="#045de9"></path></g><g transform="translate(0, 0)"><path d="M378.6 0C367 41.6 355.3 83.3 324.3 105.4C293.3 127.5 242.9 130 229 166.3C215 202.7 237.6 272.8 222.5 306.3C207.4 339.7 154.6 336.4 111.2 342.4C67.9 348.3 33.9 363.4 0 378.6L0 0Z" fill="#c4e0f1"></path><path d="M302.9 0C293.6 33.3 284.3 66.6 259.4 84.3C234.6 102 194.3 104 183.2 133.1C172 162.1 190.1 218.3 178 245C165.9 271.8 123.7 269.2 89 273.9C54.3 278.6 27.2 290.8 0 302.9L0 0Z" fill="#7fc0f4"></path><path d="M227.1 0C220.2 25 213.2 50 194.6 63.2C176 76.5 145.7 78 137.4 99.8C129 121.6 142.6 163.7 133.5 183.8C124.5 203.8 92.8 201.9 66.7 205.4C40.7 209 20.4 218.1 0 227.1L0 0Z" fill="#399cf5"></path><path d="M151.4 0C146.8 16.7 142.1 33.3 129.7 42.1C117.3 51 97.1 52 91.6 66.5C86 81.1 95.1 109.1 89 122.5C83 135.9 61.8 134.6 44.5 137C27.2 139.3 13.6 145.4 0 151.4L0 0Z" fill="#0074f0"></path><path d="M75.7 0C73.4 8.3 71.1 16.7 64.9 21.1C58.7 25.5 48.6 26 45.8 33.3C43 40.5 47.5 54.6 44.5 61.3C41.5 67.9 30.9 67.3 22.2 68.5C13.6 69.7 6.8 72.7 0 75.7L0 0Z" fill="#045de9"></path></g></svg>