<svg id="visual" viewBox="0 0 900 600" width="900" height="600" xmlns="http://www.w3.org/2000/svg" xmlns:xlink="http://www.w3.org/1999/xlink" version="1.1"><g stroke-width="1" stroke-linejoin="bevel"><path d="M479 285L560.5 229L470 215Z" fill="#e9eff2" stroke="#e9eff2"></path><path d="M479 285L550.5 335L560.5 229Z" fill="#409ff5" stroke="#409ff5"></path><path d="M708 183L591.5 136L560.5 229Z" fill="#006fef" stroke="#006fef"></path><path d="M560.5 229L591.5 136L470 215Z" fill="#045de9" stroke="#045de9"></path><path d="M591.5 136L414 127L470 215Z" fill="#2190f5" stroke="#2190f5"></path><path d="M470 215L357.5 290L479 285Z" fill="#045de9" stroke="#045de9"></path><path d="M317.5 164L357.5 290L470 215Z" fill="#006fef" stroke="#006fef"></path><path d="M413 417L545.5 409L550.5 335Z" fill="#93caf3" stroke="#93caf3"></path><path d="M413 417L550.5 335L479 285Z" fill="#e9eff2" stroke="#e9eff2"></path><path d="M550.5 335L679 315L560.5 229Z" fill="#2190f5" stroke="#2190f5"></path><path d="M703 376L679 315L550.5 335Z" fill="#045de9" stroke="#045de9"></path><path d="M357.5 290L413 417L479 285Z" fill="#045de9" stroke="#045de9"></path><path d="M679 315L708 183L560.5 229Z" fill="#006fef" stroke="#006fef"></path><path d="M414 127L317.5 164L470 215Z" fill="#006fef" stroke="#006fef"></path><path d="M357.5 290L367.5 409L413 417Z" fill="#e9eff2" stroke="#e9eff2"></path><path d="M250 303L367.5 409L357.5 290Z" fill="#2190f5" stroke="#2190f5"></path><path d="M545.5 409L703 376L550.5 335Z" fill="#e9eff2" stroke="#e9eff2"></path><path d="M679 315L780.5 210L708 183Z" fill="#2190f5" stroke="#2190f5"></path><path d="M414 127L304.5 121L317.5 164Z" fill="#5caef5" stroke="#5caef5"></path><path d="M317.5 164L250 303L357.5 290Z" fill="#5caef5" stroke="#5caef5"></path><path d="M328.5 0L304.5 121L414 127Z" fill="#2190f5" stroke="#2190f5"></path><path d="M708 183L703 93L591.5 136Z" fill="#93caf3" stroke="#93caf3"></path><path d="M591.5 136L563.5 0L414 127Z" fill="#5caef5" stroke="#5caef5"></path><path d="M648 0L563.5 0L591.5 136Z" fill="#045de9" stroke="#045de9"></path><path d="M563.5 0L424 0L414 127Z" fill="#409ff5" stroke="#409ff5"></path><path d="M703 376L760.5 339L679 315Z" fill="#93caf3" stroke="#93caf3"></path><path d="M708 183L809.5 132L703 93Z" fill="#5caef5" stroke="#5caef5"></path><path d="M186 203L250 303L317.5 164Z" fill="#409ff5" stroke="#409ff5"></path><path d="M760.5 339L780.5 210L679 315Z" fill="#5caef5" stroke="#5caef5"></path><path d="M347.5 467L413 417L367.5 409Z" fill="#409ff5" stroke="#409ff5"></path><path d="M347.5 467L456 512L413 417Z" fill="#006fef" stroke="#006fef"></path><path d="M413 417L456 512L545.5 409Z" fill="#006fef" stroke="#006fef"></path><path d="M545.5 409L682 464L703 376Z" fill="#409ff5" stroke="#409ff5"></path><path d="M196 383L347.5 467L367.5 409Z" fill="#006fef" stroke="#006fef"></path><path d="M456 512L534.5 521L545.5 409Z" fill="#e9eff2" stroke="#e9eff2"></path><path d="M703 376L787.5 430L760.5 339Z" fill="#409ff5" stroke="#409ff5"></path><path d="M534.5 521L682 464L545.5 409Z" fill="#cce3f1" stroke="#cce3f1"></path><path d="M703 93L648 0L591.5 136Z" fill="#e9eff2" stroke="#e9eff2"></path><path d="M815.5 0L648 0L703 93Z" fill="#409ff5" stroke="#409ff5"></path><path d="M424 0L328.5 0L414 127Z" fill="#2190f5" stroke="#2190f5"></path><path d="M187 128L186 203L317.5 164Z" fill="#77bcf4" stroke="#77bcf4"></path><path d="M900 239L809.5 132L780.5 210Z" fill="#0080f3" stroke="#0080f3"></path><path d="M780.5 210L809.5 132L708 183Z" fill="#2190f5" stroke="#2190f5"></path><path d="M187 128L317.5 164L304.5 121Z" fill="#93caf3" stroke="#93caf3"></path><path d="M250 303L196 383L367.5 409Z" fill="#409ff5" stroke="#409ff5"></path><path d="M682 464L787.5 430L703 376Z" fill="#409ff5" stroke="#409ff5"></path><path d="M900 324L900 239L780.5 210Z" fill="#93caf3" stroke="#93caf3"></path><path d="M772.5 523L787.5 430L682 464Z" fill="#e9eff2" stroke="#e9eff2"></path><path d="M150.5 335L196 383L250 303Z" fill="#006fef" stroke="#006fef"></path><path d="M256 0L187 128L304.5 121Z" fill="#5caef5" stroke="#5caef5"></path><path d="M328.5 0L256 0L304.5 121Z" fill="#006fef" stroke="#006fef"></path><path d="M456 512L538.5 600L534.5 521Z" fill="#e9eff2" stroke="#e9eff2"></path><path d="M534.5 521L650 600L682 464Z" fill="#0080f3" stroke="#0080f3"></path><path d="M416 600L538.5 600L456 512Z" fill="#e9eff2" stroke="#e9eff2"></path><path d="M416 600L456 512L347.5 467Z" fill="#93caf3" stroke="#93caf3"></path><path d="M196 383L243 495L347.5 467Z" fill="#93caf3" stroke="#93caf3"></path><path d="M312.5 600L416 600L347.5 467Z" fill="#409ff5" stroke="#409ff5"></path><path d="M196 383L133.5 536L243 495Z" fill="#5caef5" stroke="#5caef5"></path><path d="M186 203L150.5 335L250 303Z" fill="#0080f3" stroke="#0080f3"></path><path d="M119.5 204L150.5 335L186 203Z" fill="#cce3f1" stroke="#cce3f1"></path><path d="M538.5 600L650 600L534.5 521Z" fill="#77bcf4" stroke="#77bcf4"></path><path d="M650 600L772.5 523L682 464Z" fill="#93caf3" stroke="#93caf3"></path><path d="M900 324L780.5 210L760.5 339Z" fill="#93caf3" stroke="#93caf3"></path><path d="M900 324L760.5 339L900 388Z" fill="#93caf3" stroke="#93caf3"></path><path d="M900 134L815.5 0L809.5 132Z" fill="#409ff5" stroke="#409ff5"></path><path d="M809.5 132L815.5 0L703 93Z" fill="#e9eff2" stroke="#e9eff2"></path><path d="M112.5 107L119.5 204L187 128Z" fill="#409ff5" stroke="#409ff5"></path><path d="M187 128L119.5 204L186 203Z" fill="#409ff5" stroke="#409ff5"></path><path d="M900 388L760.5 339L787.5 430Z" fill="#2190f5" stroke="#2190f5"></path><path d="M900 239L900 134L809.5 132Z" fill="#006fef" stroke="#006fef"></path><path d="M243 495L312.5 600L347.5 467Z" fill="#93caf3" stroke="#93caf3"></path><path d="M900 524L900 388L787.5 430Z" fill="#5caef5" stroke="#5caef5"></path><path d="M138.5 0L112.5 107L187 128Z" fill="#cce3f1" stroke="#cce3f1"></path><path d="M650 600L752.5 600L772.5 523Z" fill="#cce3f1" stroke="#cce3f1"></path><path d="M772.5 523L900 524L787.5 430Z" fill="#045de9" stroke="#045de9"></path><path d="M256 0L138.5 0L187 128Z" fill="#afd7f2" stroke="#afd7f2"></path><path d="M150.5 335L78.5 395L196 383Z" fill="#2190f5" stroke="#2190f5"></path><path d="M243 495L217 600L312.5 600Z" fill="#409ff5" stroke="#409ff5"></path><path d="M0 305L78.5 395L150.5 335Z" fill="#e9eff2" stroke="#e9eff2"></path><path d="M0 305L150.5 335L119.5 204Z" fill="#2190f5" stroke="#2190f5"></path><path d="M900 134L900 0L815.5 0Z" fill="#409ff5" stroke="#409ff5"></path><path d="M133.5 536L217 600L243 495Z" fill="#cce3f1" stroke="#cce3f1"></path><path d="M78.5 395L133.5 536L196 383Z" fill="#006fef" stroke="#006fef"></path><path d="M900 600L900 524L772.5 523Z" fill="#2190f5" stroke="#2190f5"></path><path d="M0 73L0 194L112.5 107Z" fill="#afd7f2" stroke="#afd7f2"></path><path d="M112.5 107L0 194L119.5 204Z" fill="#2190f5" stroke="#2190f5"></path><path d="M78.5 395L0 506L133.5 536Z" fill="#e9eff2" stroke="#e9eff2"></path><path d="M0 194L0 305L119.5 204Z" fill="#93caf3" stroke="#93caf3"></path><path d="M752.5 600L900 600L772.5 523Z" fill="#0080f3" stroke="#0080f3"></path><path d="M0 305L0 411L78.5 395Z" fill="#cce3f1" stroke="#cce3f1"></path><path d="M0 506L105.5 600L133.5 536Z" fill="#045de9" stroke="#045de9"></path><path d="M133.5 536L105.5 600L217 600Z" fill="#2190f5" stroke="#2190f5"></path><path d="M138.5 0L0 73L112.5 107Z" fill="#2190f5" stroke="#2190f5"></path><path d="M138.5 0L0 0L0 73Z" fill="#e9eff2" stroke="#e9eff2"></path><path d="M0 411L0 506L78.5 395Z" fill="#77bcf4" stroke="#77bcf4"></path><path d="M0 506L0 600L105.5 600Z" fill="#afd7f2" stroke="#afd7f2"></path></g></svg>